PathFileType	4	(X/Y/Z)	/Users/itak/Documents/Research/Walk-IL/dataset/trc/00433_00167.trc
DataRate	CameraRate	NumFrames	NumMarkers	Units	OrigDataRate	OrigDataStartFrame	OrigNumFrames
100.000000	100.000000	4	53	mm	100.000000	0	615
Frame#	Time	RPSI			LPSI			L3			STRN			T10			C7			CLAV			RBAK			LBAK			LSHO			LUPA			LAEL			LAOL			LWTS			LWPS			LFRA			LIFD			LHPS			LHTS			RSHO			RUPA			RAEL			RAOL			RWTS			RWPS			RFRA			RIFD			RHTS			RHPS			RBHD			LFHD			RFHD			LBHD			LHIP			RHIP			RASI			LASI			LKNE			LTHI			LANK			LTIP			LTOE			LMT1			LMT5			LHEE			RKNE			RTHI			RANK			RTIP			RTOE			RMT1			RMT5			RHEE			
		X1	Y1	Z1	X2	Y2	Z2	X3	Y3	Z3	X4	Y4	Z4	X5	Y5	Z5	X6	Y6	Z6	X7	Y7	Z7	X8	Y8	Z8	X9	Y9	Z9	X10	Y10	Z10	X11	Y11	Z11	X12	Y12	Z12	X13	Y13	Z13	X14	Y14	Z14	X15	Y15	Z15	X16	Y16	Z16	X17	Y17	Z17	X18	Y18	Z18	X19	Y19	Z19	X20	Y20	Z20	X21	Y21	Z21	X22	Y22	Z22	X23	Y23	Z23	X24	Y24	Z24	X25	Y25	Z25	X26	Y26	Z26	X27	Y27	Z27	X28	Y28	Z28	X29	Y29	Z29	X30	Y30	Z30	X31	Y31	Z31	X32	Y32	Z32	X33	Y33	Z33	X34	Y34	Z34	X35	Y35	Z35	X36	Y36	Z36	X37	Y37	Z37	X38	Y38	Z38	X39	Y39	Z39	X40	Y40	Z40	X41	Y41	Z41	X42	Y42	Z42	X43	Y43	Z43	X44	Y44	Z44	X45	Y45	Z45	X46	Y46	Z46	X47	Y47	Z47	X48	Y48	Z48	X49	Y49	Z49	X50	Y50	Z50	X51	Y51	Z51	X52	Y52	Z52	X53	Y53	Z53	

1	0	-1179.743896484375	974.90869140625	-436.9615478515625	-1102.644897460938	972.3110961914062	-555.1095581054688	-1139.262817382812	1062.855834960938	-479.3437194824219	-904.8021240234375	1254.441650390625	-356.5032348632812	-1156.21728515625	1186.498168945312	-493.9589538574219	-1103.529663085938	1454.544799804688	-456.1646118164062	-933.6978149414062	1368.310913085938	-379.8208923339844	-1205.850708007812	1337.354736328125	-400.846923828125	-1086.488159179688	1407.230102539062	-557.4791870117188	-957.263671875	1423.939086914062	-578.6512451171875	-925.5260009765625	1305.928100585938	-671.9578857421875	-889.8422241210938	1095.188354492188	-702.1118774414062	-987.3258056640625	1073.726196289062	-672.5421752929688	-816.05615234375	900.6695556640625	-633.626708984375	-837.8580322265625	882.273193359375	-702.35302734375	-861.8901977539062	1009.637817382812	-704.5491943359375	-790.0612182617188	734.8654174804688	-634.5032958984375	-821.2001953125	803.4251708984375	-698.9295043945312	-786.6703491210938	815.5064086914062	-637.2188720703125	-1116.526611328125	1427.204345703125	-280.8943786621094	-1167.757934570312	1367.340209960938	-219.6831207275391	-1190.049438476562	1080.16650390625	-164.3523406982422	-1221.484130859375	1063.433227539062	-222.3582916259766	-1080.154541015625	880.2461547851562	-159.3628540039062	-1164.072631835938	865.0626220703125	-135.7749786376953	-1190.46533203125	1021.950500488281	-154.0237731933594	-1079.983764648438	721.6675415039062	-143.2230834960938	-1071.103393554688	781.525390625	-137.4812774658203	-1146.314086914062	780.2518920898438	-125.1541442871094	-1088.560424804688	1643.823608398438	-359.5904235839844	-891.0114135742188	1677.928344726562	-412.842041015625	-965.3538208007812	1676.94091796875	-305.0229187011719	-1001.008544921875	1648.029418945312	-514.5341186523438	-932.7841186523438	860.4127197265625	-584.8024291992188	-1161.693115234375	863.6407470703125	-261.3540649414062	-1039.735717773438	901.4188232421875	-253.2123718261719	-887.4330444335938	894.2987060546875	-463.9483337402344	-976.8410034179688	438.4639587402344	-557.2154541015625	-936.1067504882812	588.6202392578125	-561.7860717773438	-1054.909301757812	35.31977081298828	-591.0182495117188	-985.7727661132812	286.0900573730469	-569.1649780273438	-902.3345947265625	45.35342407226562	-413.6251220703125	-980.9757080078125	48.2996711730957	-428.8016052246094	-920.7831420898438	46.73429489135742	-524.0961303710938	-1127.56298828125	38.65116119384766	-578.9327392578125	-1136.451538085938	464.384765625	-290.6943969726562	-1130.507202148438	725.7553100585938	-235.4581298828125	-1163.415283203125	41.79685974121094	-323.1290588378906	-1144.839965820312	320.0207214355469	-285.25146484375	-948.2718505859375	46.96380615234375	-281.8301696777344	-992.6206665039062	55.03739166259766	-338.1667175292969	-1050.482177734375	48.66033554077148	-247.2729644775391	-1205.639892578125	34.69503021240234	-393.42724609375	
2	0.01	-1179.818481445312	974.8607177734375	-436.9237976074219	-1102.755126953125	972.26220703125	-555.124755859375	-1139.357177734375	1062.791381835938	-479.3670043945312	-905.08154296875	1254.512817382812	-356.4321594238281	-1156.389526367188	1186.404418945312	-493.9950256347656	-1103.889404296875	1454.494873046875	-456.1862182617188	-934.0277099609375	1368.369140625	-379.7603149414062	-1206.171630859375	1337.222290039062	-400.9216003417969	-1086.787719726562	1407.193359375	-557.4766235351562	-957.5357666015625	1423.9794921875	-578.5916748046875	-925.7052001953125	1305.935546875	-671.855712890625	-889.9412841796875	1095.166625976562	-701.880126953125	-987.6211547851562	1073.821899414062	-672.4257202148438	-816.2569580078125	900.65673828125	-633.2283935546875	-837.9678955078125	882.2435913085938	-701.9739379882812	-861.9822387695312	1009.605285644531	-704.2438354492188	-790.2662353515625	734.8363037109375	-633.9676513671875	-821.3926391601562	803.3785400390625	-698.5037841796875	-786.9284057617188	815.4710083007812	-636.716796875	-1116.983154296875	1427.110961914062	-280.9270324707031	-1168.21337890625	1367.224487304688	-219.7649230957031	-1190.362548828125	1080.056884765625	-164.3645782470703	-1221.701171875	1063.271728515625	-222.4184265136719	-1080.221923828125	880.244140625	-159.2384490966797	-1164.137939453125	864.9524536132812	-135.7369384765625	-1190.7607421875	1021.841186523438	-153.9611511230469	-1079.86181640625	721.6591186523438	-143.2224884033203	-1071.061889648438	781.5219116210938	-137.4130859375	-1146.300537109375	780.105712890625	-125.1777572631836	-1089.058715820312	1643.796875	-359.5321350097656	-891.47412109375	1677.986083984375	-412.7267150878906	-965.86767578125	1676.970947265625	-304.9227905273438	-1001.461975097656	1648.0576171875	-514.4531860351562	-932.8892211914062	860.4186401367188	-584.8358764648438	-1161.739379882812	863.6130981445312	-261.3448181152344	-1039.781982421875	901.4258422851562	-253.2135467529297	-887.4790649414062	894.3546752929688	-463.9489440917969	-976.828369140625	438.4612121582031	-557.2107543945312	-936.10107421875	588.6272583007812	-561.7814331054688	-1054.908569335938	35.31201171875	-591.0279541015625	-985.7789916992188	286.0844421386719	-569.1729736328125	-902.330810546875	45.34481811523438	-413.6210021972656	-980.9942626953125	48.29800415039062	-428.7786560058594	-920.7828979492188	46.74072647094727	-524.092529296875	-1127.560180664062	38.64485931396484	-578.9412231445312	-1136.440551757812	464.376953125	-290.662841796875	-1130.515258789062	725.7494506835938	-235.4374084472656	-1163.42138671875	41.78788757324219	-323.1354675292969	-1144.822631835938	319.9968872070312	-285.2362060546875	-948.2702026367188	46.969482421875	-281.8404846191406	-992.6314697265625	55.03810119628906	-338.1647338867188	-1050.484375	48.66562652587891	-247.2771148681641	-1205.64404296875	34.68543243408203	-393.428955078125	
3	0.02	-1179.91455078125	974.798095703125	-436.8804321289062	-1102.90234375	972.2006225585938	-555.1492919921875	-1139.48876953125	1062.709106445312	-479.3916625976562	-905.4464721679688	1254.606201171875	-356.3410949707031	-1156.620483398438	1186.281982421875	-494.0390930175781	-1104.36376953125	1454.429077148438	-456.2137756347656	-934.4642944335938	1368.44580078125	-379.6822509765625	-1206.589477539062	1337.049072265625	-401.021484375	-1087.1826171875	1407.1474609375	-557.477294921875	-957.8955688476562	1424.033447265625	-578.5164794921875	-925.9407348632812	1305.947265625	-671.7264404296875	-890.077880859375	1095.138305664062	-701.5731201171875	-987.9474487304688	1073.906982421875	-672.2501220703125	-816.5234985351562	900.6357421875	-632.7041015625	-838.1235961914062	882.2037353515625	-701.4744873046875	-862.112548828125	1009.563659667969	-703.8417358398438	-790.5572509765625	734.795654296875	-633.2649536132812	-821.6531372070312	803.3131103515625	-697.9407348632812	-787.2684326171875	815.4232788085938	-636.0625	-1117.579467773438	1426.9931640625	-280.9685974121094	-1168.807739257812	1367.074829101562	-219.8675537109375	-1190.764038085938	1079.91357421875	-164.3791198730469	-1221.984008789062	1063.061767578125	-222.4929046630859	-1080.303344726562	880.242431640625	-159.0826873779297	-1164.214599609375	864.80810546875	-135.6892242431641	-1191.1357421875	1021.698608398438	-153.8858184814453	-1079.688110351562	721.64892578125	-143.2326965332031	-1071.00048828125	781.5203247070312	-137.3294219970703	-1146.270263671875	779.9141845703125	-125.2108459472656	-1089.718139648438	1643.763061523438	-359.4617309570312	-892.092529296875	1678.065185546875	-412.578125	-966.55419921875	1677.010009765625	-304.7980346679688	-1002.063415527344	1648.095947265625	-514.3499755859375	-933.0159912109375	860.4234008789062	-584.8743896484375	-1161.7978515625	863.5784301757812	-261.3306884765625	-1039.84130859375	901.4359130859375	-253.2168731689453	-887.5409545898438	894.4299926757812	-463.9525451660156	-976.8124389648438	438.4572143554688	-557.2055053710938	-936.0939331054688	588.6368408203125	-561.7781372070312	-1054.9072265625	35.30098724365234	-591.0405883789062	-985.7862548828125	286.0769348144531	-569.1831665039062	-902.3272705078125	45.33433151245117	-413.6158142089844	-981.0189208984375	48.29561996459961	-428.7485961914062	-920.7836303710938	46.749755859375	-524.0870361328125	-1127.555786132812	38.63535308837891	-578.9531860351562	-1136.423828125	464.3659973144531	-290.6206359863281	-1130.523315429688	725.741943359375	-235.4091186523438	-1163.429321289062	41.77620315551758	-323.1431274414062	-1144.800537109375	319.9657592773438	-285.214599609375	-948.2687377929688	46.97692108154297	-281.8536987304688	-992.64306640625	55.037109375	-338.1646728515625	-1050.486694335938	48.6725959777832	-247.2825012207031	-1205.64990234375	34.67305374145508	-393.4302673339844	
4	0.03	-1180.029296875	974.722412109375	-436.8359069824219	-1103.084838867188	972.1295776367188	-555.1848754882812	-1139.657958984375	1062.612426757812	-479.4141540527344	-905.886962890625	1254.719116210938	-356.2335510253906	-1156.906372070312	1186.134399414062	-494.0882263183594	-1104.94140625	1454.348876953125	-456.2456359863281	-934.9977416992188	1368.538696289062	-379.5899353027344	-1207.091674804688	1336.840576171875	-401.1443481445312	-1087.663330078125	1407.094848632812	-557.4832153320312	-958.3350219726562	1424.10009765625	-578.4299926757812	-926.2273559570312	1305.963745117188	-671.5763549804688	-890.2523803710938	1095.104248046875	-701.19775390625	-988.2719116210938	1073.962768554688	-672.0101318359375	-816.8508911132812	900.6050415039062	-632.0669555664062	-838.3273315429688	882.1541137695312	-700.8671264648438	-862.283203125	1009.514526367188	-703.3531494140625	-790.9400634765625	734.7428588867188	-632.4146728515625	-821.9796142578125	803.2284545898438	-697.2532958984375	-787.6837158203125	815.36328125	-635.2754516601562	-1118.297973632812	1426.8564453125	-281.0173645019531	-1169.522827148438	1366.896362304688	-219.9859008789062	-1191.23828125	1079.740600585938	-164.3948059082031	-1222.323974609375	1062.809814453125	-222.5772552490234	-1080.392700195312	880.24169921875	-158.9041290283203	-1164.295776367188	864.6339111328125	-135.6343536376953	-1191.5732421875	1021.526733398438	-153.8035888671875	-1079.460205078125	721.6378784179688	-143.2593994140625	-1070.916870117188	781.5223388671875	-137.2362518310547	-1146.216796875	779.6829223632812	-125.2540817260742	-1090.524658203125	1643.723999023438	-359.3844604492188	-892.8558959960938	1678.165405273438	-412.4019775390625	-967.4011840820312	1677.05712890625	-304.6555786132812	-1002.800231933594	1648.144165039062	-514.2291870117188	-933.1558227539062	860.425537109375	-584.9146728515625	-1161.865966796875	863.538330078125	-261.3109741210938	-1039.911254882812	901.44921875	-253.2234649658203	-887.6180419921875	894.5235595703125	-463.9606323242188	-976.79443359375	438.4520263671875	-557.2005615234375	-936.086181640625	588.6489868164062	-561.7777099609375	-1054.905395507812	35.2866325378418	-591.0556640625	-985.7940063476562	286.06787109375	-569.1948852539062	-902.3247680664062	45.32269287109375	-413.6097412109375	-981.0488891601562	48.29245758056641	-428.7125244140625	-920.7857666015625	46.76140594482422	-524.079345703125	-1127.549560546875	38.62223815917969	-578.9691162109375	-1136.400634765625	464.351806640625	-290.5684204101562	-1130.529418945312	725.7330322265625	-235.3735198974609	-1163.43896484375	41.7621955871582	-323.1514282226562	-1144.774536132812	319.92822265625	-285.1863403320312	-948.2677612304688	46.98585510253906	-281.8692932128906	-992.6538696289062	55.03350067138672	-338.1678161621094	-1050.489013671875	48.68110275268555	-247.2890167236328	-1205.657470703125	34.65830993652344	-393.4306945800781	
